<svg width="40" height="37" viewBox="0 0 40 37" fill="none" xmlns="http://www.w3.org/2000/svg">
<path d="M38.3037 33.9452H37.887V30.1952C37.8861 29.4219 37.5785 28.6806 37.0317 28.1338C36.485 27.587 35.7436 27.2794 34.9703 27.2785H34.5537V18.1119H34.9703C35.7436 18.111 36.485 17.8034 37.0317 17.2566C37.5785 16.7098 37.8861 15.9685 37.887 15.1952V9.6569C37.8688 9.0785 37.6868 8.5171 37.3623 8.03803C37.0378 7.55892 36.584 7.18171 36.0537 6.95021L21.0537 0.950213C20.3544 0.692703 19.5863 0.692703 18.887 0.950213L3.88696 6.95021C3.35649 7.18154 2.90259 7.55871 2.57805 8.03786C2.2535 8.517 2.07165 9.0784 2.05363 9.6569V15.1952C2.05451 15.9685 2.36209 16.7098 2.90888 17.2566C3.45567 17.8034 4.19702 18.111 4.9703 18.1119H5.38696V27.2785H4.9703C4.19702 27.2794 3.45567 27.587 2.90888 28.1338C2.36209 28.6806 2.05451 29.4219 2.05363 30.1952V33.9452H1.63696C1.30544 33.9452 0.987501 34.0769 0.75308 34.3113C0.518659 34.5457 0.386963 34.8637 0.386963 35.1952C0.386963 35.5267 0.518659 35.8447 0.75308 36.0791C0.987501 36.3135 1.30544 36.4452 1.63696 36.4452H38.3037C38.6352 36.4452 38.9531 36.3135 39.1875 36.0791C39.422 35.8447 39.5537 35.5267 39.5537 35.1952C39.5537 34.8637 39.422 34.5457 39.1875 34.3113C38.9531 34.0769 38.6352 33.9452 38.3037 33.9452ZM4.9703 15.6119C4.86019 15.6106 4.75496 15.5663 4.6771 15.4884C4.59924 15.4105 4.55493 15.3053 4.55363 15.1952V9.6569C4.5694 9.5778 4.60063 9.5027 4.64554 9.4358C4.69045 9.3688 4.74814 9.3114 4.8153 9.2669L19.8037 3.26687C19.8585 3.2556 19.9144 3.25057 19.9703 3.25187C20.0263 3.25038 20.0822 3.25541 20.137 3.26687L35.137 9.2669C35.2709 9.3568 35.3642 9.4956 35.397 9.6535V15.1952C35.3957 15.3053 35.3514 15.4105 35.2735 15.4884C35.1957 15.5663 35.0904 15.6106 34.9803 15.6119H4.9703ZM32.0537 18.1119V27.2785H27.887V18.1119H32.0537ZM25.387 18.1119V27.2785H21.2203V18.1119H25.387ZM18.7203 18.1119V27.2785H14.5537V18.1119H18.7203ZM12.0537 18.1119V27.2785H7.88696V18.1119H12.0537ZM35.387 33.9452H4.55363V30.1952C4.55363 30.0847 4.59753 29.9787 4.67567 29.9006C4.75381 29.8224 4.85979 29.7785 4.9703 29.7785H34.9703C35.0808 29.7785 35.1868 29.8224 35.265 29.9006C35.3431 29.9787 35.387 30.0847 35.387 30.1952V33.9452ZM19.9703 6.44521C19.2286 6.44521 18.5036 6.66514 17.8869 7.0772C17.2703 7.48925 16.7896 8.07492 16.5058 8.7601C16.222 9.4454 16.1477 10.1994 16.2924 10.9268C16.4371 11.6542 16.7942 12.3224 17.3187 12.8469C17.8431 13.3713 18.5113 13.7285 19.2387 13.8732C19.9662 14.0178 20.7202 13.9436 21.4054 13.6598C22.0906 13.3759 22.6763 12.8953 23.0883 12.2786C23.5004 11.6619 23.7203 10.9369 23.7203 10.1952C23.719 9.2011 23.3235 8.24799 22.6205 7.54502C21.9175 6.84204 20.9645 6.44653 19.9703 6.44521ZM19.9703 11.4452C19.7231 11.4452 19.4814 11.3719 19.2759 11.2345C19.0703 11.0972 18.9101 10.902 18.8155 10.6736C18.7209 10.4452 18.6961 10.1938 18.7443 9.9513C18.7926 9.7089 18.9116 9.4861 19.0864 9.3113C19.2613 9.1365 19.484 9.0175 19.7265 8.9692C19.9689 8.921 20.2203 8.9457 20.4487 9.0404C20.6771 9.135 20.8723 9.2952 21.0097 9.5007C21.147 9.7063 21.2203 9.948 21.2203 10.1952C21.2194 10.5265 21.0875 10.8439 20.8532 11.0781C20.619 11.3123 20.3016 11.4443 19.9703 11.4452Z" fill="#7C9C3F"/>
</svg>
