<svg width="61" height="60" viewBox="0 0 61 60" fill="none" xmlns="http://www.w3.org/2000/svg">
<path fill-rule="evenodd" clip-rule="evenodd" d="M28.7254 55.2121C29.0682 55.7577 29.6682 56.0903 30.3134 56.0903C30.9586 56.0903 31.5586 55.7577 31.9014 55.2121C36.9764 47.1203 52.6705 22.096 56.2726 16.3523C56.7122 15.6508 56.64 14.7439 56.0938 14.1202C54.0283 11.7627 49.0732 6.10461 47.4032 4.19766C47.0469 3.79269 46.5327 3.55884 45.9927 3.55884C41.3659 3.55884 19.2609 3.55884 14.6341 3.55884C14.0941 3.55884 13.5799 3.79269 13.2236 4.19766C11.5535 6.10461 6.59849 11.7627 4.53296 14.1202C3.98689 14.7439 3.91465 15.6508 4.35421 16.3523C7.95631 22.096 23.6504 47.1203 28.7254 55.2121Z" fill="#F0F5F1"/>
<path fill-rule="evenodd" clip-rule="evenodd" d="M4.1488 15.1875H56.5025C56.4261 14.9374 56.2974 14.701 56.1173 14.4947C54.0512 12.1373 49.0925 6.47814 47.4217 4.57093C47.0665 4.16448 46.5512 3.93188 46.011 3.93188C41.3837 3.93188 19.2677 3.93188 14.6403 3.93188C14.1 3.93188 13.5848 4.16448 13.2296 4.57093C11.5588 6.47814 6.60002 12.1373 4.53399 14.4947C4.35391 14.701 4.22509 14.9374 4.1488 15.1875Z" fill="white"/>
<path fill-rule="evenodd" clip-rule="evenodd" d="M22.8219 15.1875L30.3257 3.93188H14.6403C14.4615 3.93188 14.2852 3.95689 14.1163 4.00692L22.8219 15.1875ZM30.3257 3.93188L37.8294 15.1875L46.5349 4.00692C46.3662 3.95689 46.1898 3.93188 46.011 3.93188H30.3257Z" fill="#F0F5F1"/>
<path fill-rule="evenodd" clip-rule="evenodd" d="M37.8294 15.1875H22.822L30.3257 3.93188L37.8294 15.1875Z" fill="white"/>
<path fill-rule="evenodd" clip-rule="evenodd" d="M30.3257 56.4731L22.822 15.1875H37.8294L30.3257 56.4731Z" fill="white"/>
<path fill-rule="evenodd" clip-rule="evenodd" d="M15.3155 48.9917L16.7963 51.2637L19.0681 52.7443L16.7963 54.2238L15.3155 56.4957L13.8361 54.2238L11.5642 52.7443L13.8361 51.2637L15.3155 48.9917Z" fill="#F0F5F1"/>
<path fill-rule="evenodd" clip-rule="evenodd" d="M7.81553 33.9917L9.2963 36.2637L11.5682 37.7443L9.2963 39.2238L7.81553 41.4957L6.33606 39.2238L4.06421 37.7443L6.33606 36.2637L7.81553 33.9917Z" fill="#F0F5F1"/>
<path fill-rule="evenodd" clip-rule="evenodd" d="M51.5648 40.2412L53.0456 42.5131L55.3174 43.9938L53.0456 45.4733L51.5648 47.7452L50.0853 45.4733L47.8135 43.9938L50.0853 42.5131L51.5648 40.2412Z" fill="#F0F5F1"/>
<path d="M23.4444 48.1443C24.1351 48.1443 24.695 47.5844 24.695 46.8937C24.695 46.203 24.1351 45.6431 23.4444 45.6431C22.7536 45.6431 22.1937 46.203 22.1937 46.8937C22.1937 47.5844 22.7536 48.1443 23.4444 48.1443Z" fill="#7C9C3F"/>
<path fill-rule="evenodd" clip-rule="evenodd" d="M5.64955 16.438H21.7863L28.8236 53.3802L26.6275 49.8797C26.2611 49.2945 25.4882 49.1182 24.9042 49.4845C24.3188 49.851 24.1425 50.6238 24.509 51.2079C24.509 51.2079 26.8627 54.961 27.6768 56.2591C28.2483 57.1709 29.2488 57.7236 30.3257 57.7236C31.4024 57.7236 32.4029 57.1709 32.9744 56.2591L57.3554 17.3922C58.0895 16.2229 57.9681 14.7096 57.0577 13.6704C54.9917 11.3129 50.0342 5.65386 48.3633 3.74667C47.7693 3.07007 46.9127 2.68115 46.011 2.68115H14.6403C13.7385 2.68115 12.8819 3.07007 12.2879 3.74667C10.617 5.65386 5.65956 11.3129 3.59352 13.6704C2.68307 14.7096 2.56176 16.2229 3.29587 17.3922L20.3731 44.6159C20.7408 45.2011 21.5125 45.3774 22.0977 45.0111C22.6818 44.6446 22.8594 43.8718 22.4929 43.2877L5.64955 16.438ZM53.9662 13.9368L46.7763 5.73142L40.3881 13.9368H49.085C49.7754 13.9368 50.3357 14.4971 50.3357 15.1875C50.3357 15.8777 49.7754 16.438 49.085 16.438H38.8649L31.8276 53.3802L55.0018 16.438H52.8368C52.1466 16.438 51.5863 15.8777 51.5863 15.1875C51.5863 14.4971 52.1466 13.9368 52.8368 13.9368H53.9662ZM36.3186 16.438H24.3326L30.3257 47.8987L36.3186 16.438ZM6.68507 13.9368H20.2631L13.8749 5.73142L6.68507 13.9368ZM25.1593 13.9368H35.4919L30.3257 6.18666L25.1593 13.9368ZM44.0337 5.1824H32.663L37.9082 13.05L44.0337 5.1824ZM27.9882 5.1824H16.6176L22.7431 13.05L27.9882 5.1824Z" fill="#7C9C3F"/>
<path fill-rule="evenodd" clip-rule="evenodd" d="M16.3632 48.3088C16.1329 47.9547 15.7393 47.7415 15.3155 47.7415C14.893 47.7415 14.4995 47.9547 14.2678 48.3088L12.9318 50.3595L10.8811 51.6969C10.527 51.9272 10.3124 52.3208 10.3124 52.7446C10.3124 53.1671 10.527 53.5606 10.8811 53.7923L12.9318 55.1283L14.2678 57.1791C14.4995 57.5331 14.893 57.7477 15.3155 57.7477C15.7393 57.7477 16.1329 57.5331 16.3632 57.1791L17.7006 55.1283L19.7513 53.7923C20.1054 53.5606 20.3185 53.1671 20.3185 52.7446C20.3185 52.3208 20.1054 51.9272 19.7513 51.6969L17.7006 50.3595L16.3632 48.3088ZM15.3155 51.2822L15.7486 51.947C15.8434 52.0917 15.9684 52.2167 16.1131 52.3115L16.7779 52.7446L16.1131 53.1763C15.9684 53.2711 15.8434 53.3961 15.7486 53.5423L15.3155 54.2056L14.8837 53.5423C14.789 53.3961 14.664 53.2711 14.5178 53.1763L13.8545 52.7446L14.5178 52.3115C14.664 52.2167 14.789 52.0917 14.8837 51.947L15.3155 51.2822Z" fill="#7C9C3F"/>
<path fill-rule="evenodd" clip-rule="evenodd" d="M8.86323 33.3088C8.63289 32.9547 8.23934 32.7415 7.8155 32.7415C7.39299 32.7415 6.99943 32.9547 6.76777 33.3088L5.43178 35.3595L3.38106 36.6969C3.02699 36.9272 2.81244 37.3208 2.81244 37.7446C2.81244 38.1671 3.02699 38.5606 3.38106 38.7923L5.43178 40.1283L6.76777 42.1791C6.99943 42.5331 7.39299 42.7477 7.8155 42.7477C8.23934 42.7477 8.63289 42.5331 8.86323 42.1791L10.2006 40.1283L12.2513 38.7923C12.6054 38.5606 12.8185 38.1671 12.8185 37.7446C12.8185 37.3208 12.6054 36.9272 12.2513 36.6969L10.2006 35.3595L8.86323 33.3088ZM7.8155 36.2822L8.24855 36.947C8.34332 37.0917 8.46836 37.2167 8.61315 37.3115L9.27786 37.7446L8.61315 38.1763C8.46836 38.2711 8.34332 38.3961 8.24855 38.5423L7.8155 39.2056L7.38378 38.5423C7.289 38.3961 7.16396 38.2711 7.01786 38.1763L6.35447 37.7446L7.01786 37.3115C7.16396 37.2167 7.289 37.0917 7.38378 36.947L7.8155 36.2822Z" fill="#7C9C3F"/>
<path fill-rule="evenodd" clip-rule="evenodd" d="M52.6126 39.5581C52.3822 39.204 51.9886 38.9907 51.5648 38.9907C51.1423 38.9907 50.7488 39.204 50.5171 39.5581L49.1811 41.6088L47.1304 42.946C46.7763 43.1764 46.5618 43.57 46.5618 43.9939C46.5618 44.4164 46.7763 44.8099 47.1304 45.0416L49.1811 46.3776L50.5171 48.4282C50.7488 48.7824 51.1423 48.9969 51.5648 48.9969C51.9886 48.9969 52.3822 48.7824 52.6126 48.4282L53.9499 46.3776L56.0006 45.0416C56.3547 44.8099 56.568 44.4164 56.568 43.9939C56.568 43.57 56.3547 43.1764 56.0006 42.946L53.9499 41.6088L52.6126 39.5581ZM51.5648 42.5314L51.9979 43.1961C52.0927 43.341 52.2177 43.466 52.3626 43.5608L53.0272 43.9939L52.3626 44.4255C52.2177 44.5203 52.0927 44.6454 51.9979 44.7915L51.5648 45.4549L51.1332 44.7915C51.0384 44.6454 50.9133 44.5203 50.7672 44.4255L50.1038 43.9939L50.7672 43.5608C50.9133 43.466 51.0384 43.341 51.1332 43.1961L51.5648 42.5314Z" fill="#7C9C3F"/>
</svg>
