<svg width="61" height="60" viewBox="0 0 61 60" fill="none" xmlns="http://www.w3.org/2000/svg">
<path fill-rule="evenodd" clip-rule="evenodd" d="M30.7203 3.88672C21.7408 3.88672 14.4621 11.1654 14.4621 20.1449C14.4709 25.8227 17.4361 31.0428 22.2098 33.973C22.9751 34.4433 23.7793 35.4688 23.9556 36.3492L24.3971 38.5591C24.5822 39.4833 25.4014 40.1549 26.3431 40.1549H35.0975C36.0392 40.1549 36.8583 39.4833 37.0434 38.5591L37.4849 36.3492C37.6612 35.4688 38.4654 34.4433 39.2308 33.9743C44.0044 31.0428 46.9696 25.8227 46.9784 20.1449C46.9784 11.1654 39.6998 3.88672 30.7203 3.88672Z" fill="#F0F5F1"/>
<path fill-rule="evenodd" clip-rule="evenodd" d="M24.3071 47.9463L37.1235 48.0113L36.0317 54.5621C35.8541 55.6264 34.9249 56.413 33.8468 56.413H27.5937C26.5157 56.413 25.5864 55.6264 25.4088 54.5621L24.3071 47.9463Z" fill="white"/>
<path fill-rule="evenodd" clip-rule="evenodd" d="M23.8419 45.1575H37.5987C37.9301 45.1575 38.2491 45.2888 38.4829 45.5239C38.718 45.7578 38.8494 46.0767 38.8494 46.4081V47.6587C38.8494 48.3453 38.2853 48.9093 37.5987 48.9093H23.8419C23.5104 48.9093 23.1915 48.778 22.9577 48.5429C22.7225 48.309 22.5912 47.9901 22.5912 47.6587V46.4081C22.5912 45.7215 23.1553 45.1575 23.8419 45.1575Z" fill="#F0F5F1"/>
<path fill-rule="evenodd" clip-rule="evenodd" d="M30.7203 3.88672C27.6125 3.88672 25.0925 11.1654 25.0925 20.1449C25.095 25.8227 26.1217 31.0428 27.775 33.973C28.0389 34.4433 28.3178 35.4688 28.3791 36.3492L28.5317 38.5591C28.5955 39.4833 28.8793 40.1549 29.2045 40.1549H32.236C32.5612 40.1549 32.8451 39.4833 32.9089 38.5591L33.0614 36.3492C33.1227 35.4688 33.4016 34.4433 33.6655 33.9743C35.3188 31.0428 36.3456 25.8227 36.3481 20.1449C36.3481 11.1654 33.8281 3.88672 30.7203 3.88672Z" fill="white"/>
<path fill-rule="evenodd" clip-rule="evenodd" d="M12.1335 38.6093C11.4531 38.0127 10.5751 37.6538 9.6159 37.6538C7.45732 37.6538 5.7077 39.4735 5.7077 41.7183C5.7077 43.9632 7.45732 45.7829 9.6159 45.7829H15.0874C16.8145 45.7829 18.214 44.3271 18.214 42.5312C18.214 40.7353 16.8145 39.2796 15.0874 39.2796C14.4196 39.2796 13.7993 39.4972 13.2915 39.8687L12.1335 38.6093Z" fill="#F0F5F1"/>
<path fill-rule="evenodd" clip-rule="evenodd" d="M52.4848 30.1312C52.9613 29.7135 53.5766 29.4622 54.2482 29.4622C55.759 29.4622 56.9833 30.7366 56.9833 32.3073C56.9833 33.8781 55.759 35.1525 54.2482 35.1525H50.4175C49.2094 35.1525 48.2289 34.1332 48.2289 32.8764C48.2289 31.6195 49.2094 30.6002 50.4175 30.6002C50.8853 30.6002 51.3192 30.7528 51.6744 31.0129L52.4848 30.1312Z" fill="white"/>
<path fill-rule="evenodd" clip-rule="evenodd" d="M23.4016 50.1212L24.1758 54.7685C24.4534 56.4319 25.9066 57.6637 27.5937 57.6637H33.8468C35.5339 57.6637 36.9872 56.4319 37.2648 54.7685L38.0389 50.12C39.2045 49.9099 40.1 48.8806 40.1 47.6587V46.4081C40.1 45.7453 39.8361 45.1087 39.3671 44.6397C38.8981 44.1707 38.2615 43.9069 37.5987 43.9069H36.9734V40.8028C37.6262 40.3376 38.104 39.6335 38.2691 38.8043L38.7118 36.5945C38.8281 36.0129 39.3796 35.3501 39.8849 35.0399C45.0262 31.8834 48.2203 26.2618 48.229 20.1475V20.145C48.229 10.4751 40.3901 2.63623 30.7203 2.63623C21.0504 2.63623 13.2115 10.4751 13.2115 20.145V20.1462C13.2128 20.714 13.2403 21.2756 13.2953 21.8333C13.3629 22.5199 13.9744 23.0227 14.6623 22.9551C15.3489 22.8876 15.8516 22.2761 15.7841 21.5882C15.7378 21.1117 15.714 20.6302 15.7128 20.1437C15.7128 13.2553 20.3538 7.45239 26.6795 5.68776C25.0037 8.69926 23.8418 14.0419 23.8418 20.145V20.1462C23.8456 26.0792 24.9587 31.5257 26.6845 34.5884C26.8909 34.9524 27.0835 35.7528 27.131 36.4356L27.2836 38.6455C27.2898 38.7343 27.2986 38.8206 27.3073 38.9044H26.3431C25.9942 38.9044 25.6915 38.6567 25.624 38.3141L25.1825 36.1042C24.9461 34.9249 23.8894 33.5379 22.8639 32.9076C20.7941 31.637 19.092 29.8986 17.8689 27.8701C17.5124 27.2785 16.742 27.0885 16.1517 27.4449C15.5602 27.8013 15.3701 28.5704 15.7265 29.162C17.1535 31.5282 19.1395 33.5567 21.5557 35.0399C22.0609 35.3501 22.6125 36.0129 22.7288 36.5945L23.1715 38.8043C23.3366 39.6335 23.8143 40.3376 24.4672 40.8028V43.9069H23.8418C22.4699 43.9069 21.3406 45.0362 21.3406 46.4081V47.6587C21.3406 48.3216 21.6045 48.9581 22.0735 49.4271C22.4374 49.791 22.9014 50.0312 23.4016 50.1212ZM35.4977 50.16H35.0562C34.3659 50.16 33.8056 49.5997 33.8056 48.9094C33.8056 48.219 34.3659 47.6587 35.0562 47.6587H37.5987V46.5082C37.5187 46.4881 37.4049 46.4081 37.5987 46.4081H23.8418V47.5587C23.9219 47.5787 24.0357 47.6587 23.8418 47.6587H31.0379C31.727 47.6587 32.2886 48.219 32.2886 48.9094C32.2886 49.5997 31.727 50.16 31.0379 50.16H25.9429L26.6432 54.3571C26.7195 54.8198 27.1247 55.1625 27.5937 55.1625H33.8468C34.3158 55.1625 34.721 54.8198 34.7973 54.3571L35.4977 50.16ZM29.4697 43.9069V41.4056H26.9684V43.9069H29.4697ZM34.4722 43.9069V41.4056H31.9709V43.9069H34.4722ZM30.7203 5.13748C31.0467 5.13748 31.3381 5.33508 31.632 5.61772C32.0997 6.0667 32.5237 6.73202 32.9126 7.55744C34.2533 10.3951 35.0975 14.9786 35.0975 20.145C35.095 25.5677 34.1545 30.5602 32.5762 33.3591C32.2523 33.9356 31.8884 35.1837 31.8146 36.263L31.6607 38.4729C31.652 38.6105 31.6232 38.7668 31.592 38.9044H29.8486C29.8173 38.7668 29.7886 38.6105 29.7798 38.4729L29.626 36.263C29.5522 35.1837 29.1883 33.9356 28.8644 33.3591C27.2861 30.5602 26.3456 25.5677 26.3431 20.145C26.3431 14.9786 27.1873 10.3951 28.5279 7.55744C28.9169 6.73202 29.3408 6.0667 29.8086 5.61772C30.1025 5.33508 30.3939 5.13748 30.7203 5.13748ZM34.7611 5.68776C36.4369 8.69926 37.5987 14.0419 37.5987 20.145V20.1462C37.5962 26.0792 36.4819 31.5257 34.756 34.5884C34.5497 34.9524 34.3571 35.7528 34.3096 36.4356L34.157 38.6455C34.1507 38.7343 34.142 38.8206 34.1332 38.9044H35.0975C35.4464 38.9044 35.749 38.6567 35.8166 38.3141L36.2581 36.1042C36.4944 34.9249 37.5512 33.5379 38.5755 32.9076C42.9827 30.2025 45.719 25.3851 45.7278 20.1437C45.7278 13.2565 41.0867 7.45239 34.7611 5.68776Z" fill="#7C9C3F"/>
<path fill-rule="evenodd" clip-rule="evenodd" d="M13.0552 37.7638C13.0239 37.73 12.9926 37.6987 12.9589 37.6687C12.0559 36.8783 10.8891 36.4031 9.61591 36.4031C6.78075 36.4031 4.45709 38.7693 4.45709 41.7182C4.45709 44.6672 6.78075 47.0334 9.61591 47.0334H15.0874C17.4911 47.0334 19.4646 45.0311 19.4646 42.5311C19.4646 40.0311 17.4911 38.0289 15.0874 38.0289C14.5497 38.0289 14.0344 38.1289 13.5579 38.3115L13.0552 37.7638ZM11.263 39.5096L12.3711 40.7152C12.8013 41.1842 13.5154 41.2542 14.0294 40.8791C14.3296 40.6602 14.6935 40.5301 15.0874 40.5301C16.138 40.5301 16.9634 41.4393 16.9634 42.5311C16.9634 43.6229 16.138 44.5321 15.0874 44.5321H9.61591C8.13392 44.5321 6.95834 43.259 6.95834 41.7182C6.95834 40.1775 8.13392 38.9043 9.61591 38.9043C10.2375 38.9043 10.8091 39.1307 11.2593 39.5071L11.263 39.5096Z" fill="#7C9C3F"/>
<path fill-rule="evenodd" clip-rule="evenodd" d="M51.6607 29.1907L51.3768 29.4883C51.0729 29.3983 50.7503 29.3495 50.4176 29.3495C48.5317 29.3495 46.9784 30.9153 46.9784 32.8763C46.9784 34.8373 48.5317 36.403 50.4176 36.403H54.2483C56.4356 36.403 58.234 34.5821 58.234 32.3073C58.234 30.0324 56.4356 28.2114 54.2483 28.2114C53.2628 28.2114 52.3586 28.5779 51.6607 29.1907ZM53.3566 31.0316C53.6029 30.8328 53.9118 30.7127 54.2483 30.7127C55.0812 30.7127 55.7328 31.4393 55.7328 32.3073C55.7328 33.1752 55.0812 33.9018 54.2483 33.9018H50.4176C49.8861 33.9018 49.4796 33.4291 49.4796 32.8763C49.4796 32.3235 49.8861 31.8508 50.4176 31.8508C50.6114 31.8508 50.7903 31.9145 50.9366 32.0221C51.4506 32.3985 52.1647 32.3273 52.5962 31.8595L53.3528 31.0341L53.3566 31.0316Z" fill="#7C9C3F"/>
<path d="M15.2553 26.3585C15.9463 26.3585 16.5064 25.7983 16.5064 25.1073C16.5064 24.4163 15.9463 23.8562 15.2553 23.8562C14.5643 23.8562 14.0041 24.4163 14.0041 25.1073C14.0041 25.7983 14.5643 26.3585 15.2553 26.3585Z" fill="#7C9C3F"/>
</svg>
