<svg width="40" height="35" viewBox="0 0 40 35" fill="none" xmlns="http://www.w3.org/2000/svg">
<path d="M38.3137 32.1735H34.1987V27.1002C35.2539 26.8312 36.1898 26.2191 36.8593 25.3602C37.5288 24.5013 37.8938 23.4442 37.897 22.3552V18.5719C37.897 17.2679 37.379 16.0173 36.4569 15.0953C35.5349 14.1732 34.2843 13.6552 32.9803 13.6552C31.6763 13.6552 30.4258 14.1732 29.5037 15.0953C28.5817 16.0173 28.0637 17.2679 28.0637 18.5719V22.3485C28.0669 23.4261 28.4246 24.4727 29.0815 25.3269C29.7384 26.181 30.6581 26.7954 31.6987 27.0752V32.1735H25.0637V6.79854C25.0637 2.74188 22.8553 0.508545 18.842 0.508545H8.46534C4.44034 0.508545 2.22367 2.74188 2.22367 6.79854V32.1735H1.647C1.31548 32.1735 0.997541 32.3052 0.76312 32.5397C0.528699 32.7741 0.397003 33.092 0.397003 33.4235C0.397003 33.7551 0.528699 34.073 0.76312 34.3074C0.997541 34.5418 1.31548 34.6735 1.647 34.6735H32.852C32.8853 34.6735 32.9153 34.6919 32.9487 34.6919C32.982 34.6919 33.012 34.6752 33.0453 34.6735H38.3137C38.6452 34.6735 38.9631 34.5418 39.1975 34.3074C39.432 34.073 39.5637 33.7551 39.5637 33.4235C39.5637 33.092 39.432 32.7741 39.1975 32.5397C38.9631 32.3052 38.6452 32.1735 38.3137 32.1735ZM22.5637 32.1735H14.9803V27.1735C14.9803 26.842 14.8486 26.5241 14.6142 26.2897C14.3798 26.0552 14.0618 25.9235 13.7303 25.9235C13.3988 25.9235 13.0809 26.0552 12.8464 26.2897C12.612 26.5241 12.4803 26.842 12.4803 27.1735V32.1735H4.72867V6.79854C4.72867 4.14188 5.84867 3.00855 8.47034 3.00855H18.847C21.4553 3.00855 22.5687 4.14188 22.5687 6.79854L22.5637 32.1735ZM32.9803 24.7669C32.3395 24.7664 31.7251 24.5117 31.272 24.0586C30.8189 23.6054 30.5641 22.991 30.5637 22.3502V18.5719C30.5637 17.9309 30.8183 17.3162 31.2715 16.863C31.7247 16.4098 32.3394 16.1552 32.9803 16.1552C33.6213 16.1552 34.236 16.4098 34.6892 16.863C35.1424 17.3162 35.397 17.9309 35.397 18.5719V22.3485C35.397 22.9896 35.1424 23.6045 34.6893 24.058C34.2361 24.5115 33.6214 24.7664 32.9803 24.7669ZM19.147 10.5085C19.147 10.8401 19.0153 11.158 18.7809 11.3924C18.5465 11.6268 18.2285 11.7585 17.897 11.7585H9.647C9.47483 11.7726 9.30161 11.7509 9.13826 11.6947C8.97492 11.6385 8.825 11.549 8.69796 11.4319C8.57093 11.3149 8.46954 11.1728 8.40018 11.0145C8.33083 10.8563 8.29503 10.6855 8.29503 10.5127C8.29503 10.34 8.33083 10.1691 8.40018 10.0109C8.46954 9.8527 8.57093 9.7105 8.69796 9.5935C8.825 9.47641 8.97492 9.387 9.13826 9.3307C9.30161 9.2745 9.47483 9.2528 9.647 9.2669H17.897C18.2271 9.2669 18.5438 9.3974 18.7779 9.63C19.0121 9.86271 19.1448 10.1785 19.147 10.5085ZM19.147 16.7569C19.147 17.0884 19.0153 17.4063 18.7809 17.6408C18.5465 17.8752 18.2285 18.0069 17.897 18.0069H9.647C9.31548 18.0069 8.99754 17.8752 8.76312 17.6408C8.5287 17.4063 8.397 17.0884 8.397 16.7569C8.397 16.4254 8.5287 16.1074 8.76312 15.873C8.99754 15.6386 9.31548 15.5069 9.647 15.5069H17.897C18.2285 15.5069 18.5465 15.6386 18.7809 15.873C19.0153 16.1074 19.147 16.4254 19.147 16.7569Z" fill="#7C9C3F"/>
</svg>
